<?xml version="1.0" standalone="no"?>
<!DOCTYPE svg PUBLIC "-//W3C//DTD SVG 20010904//EN"
 "http://www.w3.org/TR/2001/REC-SVG-20010904/DTD/svg10.dtd">
<svg version="1.0" xmlns="http://www.w3.org/2000/svg"
 width="100.000000pt" height="100.000000pt" viewBox="0 0 100.000000 100.000000"
 preserveAspectRatio="xMidYMid meet">

<g transform="translate(0.000000,100.000000) scale(0.100000,-0.100000)"
fill="#4CAF50" stroke="none">
<path d="M245 948 c-2 -7 -6 -33 -7 -57 -3 -43 -5 -46 -60 -78 -32 -19 -58
-38 -58 -43 0 -12 -5 -13 54 5 27 8 53 15 58 15 17 0 8 -67 -12 -85 -28 -25
-27 -49 3 -39 12 4 29 8 37 8 8 0 25 -4 38 -8 29 -10 30 14 2 39 -20 18 -29
85 -12 85 5 0 31 -7 58 -15 59 -18 54 -17 54 -5 0 5 -26 24 -57 43 -57 33 -58
34 -63 87 -5 51 -24 78 -35 48z"/>
<path d="M383 943 c-56 -13 -63 -17 -63 -38 0 -24 0 -24 43 -9 23 8 69 18 102
21 62 6 175 -12 175 -27 0 -5 -16 -14 -36 -20 -30 -10 -40 -21 -60 -66 -13
-30 -24 -59 -24 -64 0 -6 16 -18 35 -27 31 -15 33 -18 20 -33 -8 -9 -18 -31
-21 -49 -5 -24 -15 -35 -40 -46 -39 -16 -42 -25 -15 -49 22 -20 46 -12 94 32
25 24 30 25 60 13 53 -21 62 -19 65 17 4 41 15 40 48 -3 26 -34 26 -36 9 -55
-14 -16 -31 -20 -81 -20 -59 0 -65 -2 -118 -46 -54 -43 -56 -47 -56 -93 0 -41
5 -51 38 -84 45 -44 97 -51 127 -17 22 24 65 27 65 4 0 -9 14 -29 30 -44 l30
-28 -28 -24 c-15 -12 -39 -30 -52 -39 l-25 -17 28 -7 c25 -7 35 -1 83 46 125
122 168 271 129 438 -39 163 -173 297 -336 336 -79 18 -145 18 -226 -2z m412
-148 c54 -53 102 -137 112 -199 l6 -37 -36 21 c-20 12 -41 19 -46 16 -5 -4
-22 10 -37 29 -26 34 -26 36 -9 55 23 26 9 43 -31 38 -21 -2 -30 -9 -32 -26
-2 -12 -12 -27 -23 -32 -10 -6 -19 -20 -19 -31 0 -18 -2 -19 -29 -4 -17 8 -38
12 -48 9 -10 -3 -1 9 19 28 21 18 43 48 49 66 10 30 9 36 -10 55 -16 16 -24
18 -32 10 -9 -9 -9 -16 -1 -25 19 -23 -1 -40 -31 -29 -31 12 -30 9 -16 50 12
35 46 55 66 39 17 -14 33 -1 33 28 l0 25 32 -18 c17 -10 54 -40 83 -68z m93
-267 c34 -21 34 -22 28 -74 -7 -62 -38 -148 -65 -184 -17 -21 -21 -22 -36 -10
-9 7 -22 28 -30 47 -12 29 -18 33 -53 33 -26 0 -45 -7 -57 -20 -40 -44 -115
-7 -115 56 0 26 8 40 44 68 39 32 49 36 103 36 54 0 62 3 93 35 19 19 38 35
43 35 5 0 25 -10 45 -22z"/>
<path d="M98 708 c-25 -21 -50 -98 -55 -173 -16 -223 133 -429 348 -480 70
-16 156 -19 177 -6 19 12 -29 28 -104 35 -34 3 -83 14 -110 23 -42 16 -50 23
-52 48 -2 16 1 46 7 67 10 33 9 43 -13 86 -24 47 -28 50 -73 55 -111 14 -128
21 -131 48 -2 20 5 32 31 52 25 19 38 39 46 73 12 46 11 49 -20 91 -27 38 -30
48 -20 69 12 27 -3 33 -31 12z m35 -158 c-3 -14 -17 -36 -30 -50 l-25 -25 6
63 c3 35 9 68 12 74 12 19 44 -35 37 -62z m75 -227 c34 -4 46 -12 58 -35 8
-16 12 -33 9 -38 -3 -5 -10 -29 -14 -52 l-8 -43 -49 50 c-27 28 -60 70 -73 94
l-24 44 29 -7 c16 -4 48 -9 72 -13z"/>
<path d="M445 710 c-4 -6 -1 -17 5 -25 10 -12 10 -18 0 -30 -22 -27 2 -39 39
-21 17 9 31 20 31 24 0 10 -53 62 -62 62 -4 0 -10 -5 -13 -10z"/>
<path d="M245 630 c-11 -17 4 -97 31 -169 61 -161 183 -300 329 -372 80 -40
95 -44 161 -44 57 0 78 4 101 21 38 27 73 99 73 149 l0 40 -20 -25 c-11 -14
-20 -31 -20 -38 0 -32 -34 -81 -65 -96 -45 -22 -93 -20 -162 6 -192 71 -343
257 -388 477 -10 53 -26 73 -40 51z"/>
</g>
</svg>
